<mxfile host="drawio-plugin" modified="2022-05-05T14:47:00.236Z" agent="5.0 (Macintosh; Intel Mac OS X 10_15_7) AppleWebKit/537.36 (KHTML, like Gecko) Chrome/97.0.4692.45 Safari/537.36" etag="UXm5YV7cn9olM4dDr60f" version="15.5.4" type="embed"><diagram id="fZzsxudwQuYFXp9Qc6u9" name="Page-1"><mxGraphModel dx="535" dy="233" grid="1" gridSize="10" guides="1" tooltips="1" connect="1" arrows="1" fold="1" page="1" pageScale="1" pageWidth="827" pageHeight="1169" math="0" shadow="0"><root><mxCell id="0"/><mxCell id="1" parent="0"/><mxCell id="SWTDgLNyb-WHcglcs-_g-3" value="" style="rounded=0;whiteSpace=wrap;html=1;" parent="1" vertex="1"><mxGeometry x="80" y="240" width="720" height="400" as="geometry"/></mxCell><mxCell id="SWTDgLNyb-WHcglcs-_g-4" value="" style="rounded=0;whiteSpace=wrap;html=1;fillColor=#e1d5e7;strokeColor=#9673a6;" parent="1" vertex="1"><mxGeometry x="90" y="280" width="310" height="350" as="geometry"/></mxCell><mxCell id="SWTDgLNyb-WHcglcs-_g-7" value="" style="rounded=0;whiteSpace=wrap;html=1;fillColor=#e1d5e7;strokeColor=#9673a6;" parent="1" vertex="1"><mxGeometry x="480" y="280" width="310" height="350" as="geometry"/></mxCell><mxCell id="SWTDgLNyb-WHcglcs-_g-9" value="&lt;font style=&quot;font-size: 18px&quot;&gt;Program structure&lt;/font&gt;" style="text;html=1;strokeColor=none;fillColor=none;align=center;verticalAlign=middle;whiteSpace=wrap;rounded=0;" parent="1" vertex="1"><mxGeometry x="355" y="240" width="180" height="40" as="geometry"/></mxCell><mxCell id="SWTDgLNyb-WHcglcs-_g-10" value="&lt;font style=&quot;font-size: 18px&quot;&gt;Representation&lt;/font&gt;" style="text;html=1;strokeColor=none;fillColor=none;align=center;verticalAlign=middle;whiteSpace=wrap;rounded=0;" parent="1" vertex="1"><mxGeometry x="100" y="280" width="290" height="40" as="geometry"/></mxCell><mxCell id="SWTDgLNyb-WHcglcs-_g-12" value="" style="rounded=0;whiteSpace=wrap;html=1;fillColor=#dae8fc;strokeColor=#6c8ebf;" parent="1" vertex="1"><mxGeometry x="540" y="340" width="190" height="110" as="geometry"/></mxCell><mxCell id="SWTDgLNyb-WHcglcs-_g-14" value="" style="rounded=0;whiteSpace=wrap;html=1;fillColor=#f8cecc;strokeColor=#b85450;" parent="1" vertex="1"><mxGeometry x="100" y="320" width="290" height="300" as="geometry"/></mxCell><mxCell id="SWTDgLNyb-WHcglcs-_g-15" value="" style="rounded=0;whiteSpace=wrap;html=1;fillColor=#ffe6cc;strokeColor=#d79b00;" parent="1" vertex="1"><mxGeometry x="185" y="320" width="120" height="30" as="geometry"/></mxCell><mxCell id="SWTDgLNyb-WHcglcs-_g-16" value="&lt;font style=&quot;font-size: 18px&quot;&gt;QMainWindow&lt;/font&gt;" style="text;html=1;strokeColor=none;fillColor=none;align=center;verticalAlign=middle;whiteSpace=wrap;rounded=0;" parent="1" vertex="1"><mxGeometry x="190" y="320" width="110" height="30" as="geometry"/></mxCell><mxCell id="SWTDgLNyb-WHcglcs-_g-17" value="Text" style="text;html=1;strokeColor=none;fillColor=none;align=center;verticalAlign=middle;whiteSpace=wrap;rounded=0;" parent="1" vertex="1"><mxGeometry x="215" y="370" width="60" height="30" as="geometry"/></mxCell><mxCell id="SWTDgLNyb-WHcglcs-_g-18" value="" style="rounded=0;whiteSpace=wrap;html=1;fillColor=#d5e8d4;strokeColor=#82b366;" parent="1" vertex="1"><mxGeometry x="110" y="370" width="270" height="240" as="geometry"/></mxCell><mxCell id="SWTDgLNyb-WHcglcs-_g-19" value="&lt;font style=&quot;font-size: 18px&quot;&gt;QWidget&lt;/font&gt;" style="rounded=0;whiteSpace=wrap;html=1;fillColor=#ffe6cc;strokeColor=#d79b00;" parent="1" vertex="1"><mxGeometry x="185" y="370" width="120" height="30" as="geometry"/></mxCell><mxCell id="SWTDgLNyb-WHcglcs-_g-20" value="" style="rounded=0;whiteSpace=wrap;html=1;" parent="1" vertex="1"><mxGeometry x="120" y="430" width="250" height="70" as="geometry"/></mxCell><mxCell id="SWTDgLNyb-WHcglcs-_g-21" value="" style="rounded=0;whiteSpace=wrap;html=1;" parent="1" vertex="1"><mxGeometry x="120" y="530" width="250" height="70" as="geometry"/></mxCell><mxCell id="SWTDgLNyb-WHcglcs-_g-22" value="&lt;font style=&quot;font-size: 18px&quot;&gt;Logic&lt;/font&gt;" style="text;html=1;strokeColor=none;fillColor=none;align=center;verticalAlign=middle;whiteSpace=wrap;rounded=0;" parent="1" vertex="1"><mxGeometry x="540" y="290" width="190" height="30" as="geometry"/></mxCell><mxCell id="SWTDgLNyb-WHcglcs-_g-23" value="&lt;font style=&quot;font-size: 18px&quot;&gt;SerialComunication&lt;/font&gt;" style="text;html=1;strokeColor=none;fillColor=none;align=center;verticalAlign=middle;whiteSpace=wrap;rounded=0;" parent="1" vertex="1"><mxGeometry x="540" y="380" width="190" height="30" as="geometry"/></mxCell><mxCell id="SWTDgLNyb-WHcglcs-_g-24" value="" style="rounded=0;whiteSpace=wrap;html=1;fillColor=#dae8fc;strokeColor=#6c8ebf;" parent="1" vertex="1"><mxGeometry x="540" y="490" width="190" height="110" as="geometry"/></mxCell><mxCell id="SWTDgLNyb-WHcglcs-_g-25" value="&lt;font style=&quot;font-size: 18px&quot;&gt;DataWorker&lt;/font&gt;" style="text;html=1;strokeColor=none;fillColor=none;align=center;verticalAlign=middle;whiteSpace=wrap;rounded=0;" parent="1" vertex="1"><mxGeometry x="540" y="530" width="190" height="30" as="geometry"/></mxCell><mxCell id="SWTDgLNyb-WHcglcs-_g-27" value="&lt;font style=&quot;font-size: 18px&quot;&gt;QFrame&lt;/font&gt;" style="rounded=0;whiteSpace=wrap;html=1;fillColor=#ffe6cc;strokeColor=#d79b00;" parent="1" vertex="1"><mxGeometry x="185" y="430" width="120" height="30" as="geometry"/></mxCell><mxCell id="SWTDgLNyb-WHcglcs-_g-28" value="&lt;font style=&quot;font-size: 18px&quot;&gt;PlotWidget&lt;/font&gt;" style="rounded=0;whiteSpace=wrap;html=1;fillColor=#ffe6cc;strokeColor=#d79b00;" parent="1" vertex="1"><mxGeometry x="185" y="530" width="120" height="30" as="geometry"/></mxCell><mxCell id="SWTDgLNyb-WHcglcs-_g-29" value="&lt;font style=&quot;font-size: 18px&quot;&gt;AVR Controller&lt;/font&gt;" style="rounded=0;whiteSpace=wrap;html=1;" parent="1" vertex="1"><mxGeometry x="480" y="700" width="280" height="81" as="geometry"/></mxCell><mxCell id="SWTDgLNyb-WHcglcs-_g-34" value="" style="shape=flexArrow;endArrow=classic;startArrow=classic;html=1;rounded=0;exitX=1;exitY=0.5;exitDx=0;exitDy=0;entryX=0;entryY=0.5;entryDx=0;entryDy=0;" parent="1" source="SWTDgLNyb-WHcglcs-_g-4" target="SWTDgLNyb-WHcglcs-_g-7" edge="1"><mxGeometry width="100" height="100" relative="1" as="geometry"><mxPoint x="420" y="520" as="sourcePoint"/><mxPoint x="520" y="420" as="targetPoint"/></mxGeometry></mxCell><mxCell id="SWTDgLNyb-WHcglcs-_g-36" value="&lt;span style=&quot;font-size: 18px ; background-color: rgb(247 , 247 , 247)&quot;&gt;Magnetic Levitation Control System&lt;/span&gt;" style="rounded=0;whiteSpace=wrap;html=1;" parent="1" vertex="1"><mxGeometry x="120" y="701" width="280" height="80" as="geometry"/></mxCell><mxCell id="SWTDgLNyb-WHcglcs-_g-38" value="&lt;font style=&quot;font-size: 18px&quot;&gt;DataPlot&lt;/font&gt;" style="text;html=1;strokeColor=none;fillColor=none;align=center;verticalAlign=middle;whiteSpace=wrap;rounded=0;fontSize=17;" parent="1" vertex="1"><mxGeometry x="180" y="560" width="130" height="30" as="geometry"/></mxCell><mxCell id="SWTDgLNyb-WHcglcs-_g-39" value="&lt;font style=&quot;font-size: 18px&quot;&gt;DataOperation&lt;/font&gt;" style="text;html=1;strokeColor=none;fillColor=none;align=center;verticalAlign=middle;whiteSpace=wrap;rounded=0;fontSize=17;" parent="1" vertex="1"><mxGeometry x="177.5" y="460" width="135" height="30" as="geometry"/></mxCell><mxCell id="SWTDgLNyb-WHcglcs-_g-45" value="" style="shape=flexArrow;endArrow=classic;startArrow=classic;html=1;rounded=0;fontFamily=Times New Roman;fontSize=16;entryX=0.75;entryY=1;entryDx=0;entryDy=0;exitX=0.5;exitY=0;exitDx=0;exitDy=0;" parent="1" source="SWTDgLNyb-WHcglcs-_g-29" target="SWTDgLNyb-WHcglcs-_g-3" edge="1"><mxGeometry width="100" height="100" relative="1" as="geometry"><mxPoint x="600" y="760" as="sourcePoint"/><mxPoint x="700" y="660" as="targetPoint"/></mxGeometry></mxCell><mxCell id="SWTDgLNyb-WHcglcs-_g-46" value="" style="shape=flexArrow;endArrow=classic;startArrow=classic;html=1;rounded=0;fontFamily=Times New Roman;fontSize=16;entryX=1;entryY=0.5;entryDx=0;entryDy=0;exitX=0;exitY=0.5;exitDx=0;exitDy=0;" parent="1" source="SWTDgLNyb-WHcglcs-_g-29" target="SWTDgLNyb-WHcglcs-_g-36" edge="1"><mxGeometry width="100" height="100" relative="1" as="geometry"><mxPoint x="410" y="900" as="sourcePoint"/><mxPoint x="510" y="800" as="targetPoint"/></mxGeometry></mxCell></root></mxGraphModel></diagram></mxfile>